<?xml version="1.0" encoding="utf-8"?>
<!-- Generator: Adobe Illustrator 19.0.0, SVG Export Plug-In . SVG Version: 6.00 Build 0)  -->
<svg version="1.1" id="Layer_1" xmlns="http://www.w3.org/2000/svg" xmlns:xlink="http://www.w3.org/1999/xlink" x="0px" y="0px"
	 viewBox="-63 5.4 490 364.7" style="enable-background:new -63 5.4 490 364.7;" xml:space="preserve">
<style type="text/css">
	.st0{fill:#CCCCCC;}
	.st1{fill:#B3B3B3;}
	.st2{fill:#E6E6E6;}
	.st3{fill:#90BC42;}
	.st4{fill:#9AD14B;}
	.st5{fill:#F95428;}
	.st6{fill:#F7B239;}
	.st7{fill:#FFFFFF;}
	.st8{fill:#E09B2D;}
	.st9{fill:#333333;}
</style>
<g>
	<rect x="108.3" y="330.1" class="st0" width="142.5" height="32.6"/>
	<rect x="108.3" y="330.1" class="st1" width="39" height="32.6"/>
	<path class="st2" d="M325.8,181.1h18.9c0,65.7-38.4,122.4-93.9,149H108.3c-55.5-26.6-93.9-83.3-93.9-149h19h93h106.4H325.8z"/>
	<path class="st0" d="M103,181.1H33.4H14.5c0,65.7,38.3,122.4,93.9,149h88.5C141.3,303.5,103,246.8,103,181.1z"/>
	<path class="st3" d="M286.5,124.9c2.2,2.8,2.7,6.6,2.7,10.8c-3.2-0.7-6.5-1.1-9.9-1.1c-17.4,0-32.6,9.6-40.6,23.8L111.6,147
		c-3.8-3.6-8.3-6.5-13.2-8.6l157.7-24.2C263.7,120.2,280.4,117.3,286.5,124.9z"/>
	<path class="st4" d="M111.6,147l127.1,11.3c-3.8,6.7-5.9,14.5-5.9,22.7H126.4C126.4,167.6,120.7,155.5,111.6,147z"/>
	<path class="st4" d="M256.1,114.2L98.4,138.4c-5.7-2.5-11.9-3.8-18.5-3.8c-2.8,0-5.4,0.2-8.1,0.7l-1.8-1.8c0.2-3.3,0.8-6.4,2.7-8.6
		c6.1-7.6,22.8-4.6,30.4-10.7c7.6-6,8.4-23,17.2-27.3c8.6-4.2,22.4,5.7,32,3.5c9.3-2.1,17.4-17,27.3-17s18,14.9,27.3,17.1
		c9.6,2.2,23.4-7.7,32-3.5C247.7,91.2,248.5,108.1,256.1,114.2z"/>
	<path class="st5" d="M111.6,147c9.1,8.5,14.8,20.6,14.8,34.1h-93c0-22.3,15.7-40.9,36.6-45.4c0.6-0.1,1.2-0.3,1.9-0.4
		c2.6-0.5,5.3-0.7,8.1-0.7c6.6,0,12.8,1.4,18.5,3.8C103.3,140.5,107.7,143.5,111.6,147z"/>
	<path class="st5" d="M238.7,158.4c8-14.2,23.1-23.8,40.6-23.8c3.4,0,6.7,0.4,9.9,1.1c20.9,4.5,36.6,23.2,36.6,45.4h-93
		C232.8,172.8,234.9,165.1,238.7,158.4z"/>
	<path class="st6" d="M32.1,61c9,9,9,23.5,0,32.5l-1.1,1.1L30,95.6c-9,9-23.5,9-32.5,0l-41.3-41.3c-9-9-9-23.5,0-32.5l2.1-2.1
		c9-9,23.5-9,32.5,0L32.1,61z"/>
	<path class="st7" d="M302.8,188.6c-4.1,0-7.5-3.4-7.5-7.5c0-7.5-5.3-14-12.5-15.6c-1.1-0.2-2.3-0.4-3.5-0.4c-4.1,0-7.5-3.4-7.5-7.5
		s3.4-7.5,7.5-7.5c2.2,0,4.5,0.2,6.6,0.7c14.1,3.1,24.4,15.8,24.4,30.3C310.3,185.2,306.9,188.6,302.8,188.6z"/>
	<path class="st7" d="M102.3,188.6c-4.1,0-7.5-3.4-7.5-7.5c0-7.5-5.3-14-12.5-15.6c-1.1-0.2-2.3-0.4-3.5-0.4c-4.1,0-7.5-3.4-7.5-7.5
		s3.4-7.5,7.5-7.5c2.2,0,4.5,0.2,6.6,0.7c14.1,3.1,24.4,15.8,24.4,30.3C109.8,185.2,106.4,188.6,102.3,188.6z"/>
	<path class="st8" d="M37.3,85.7c-1.1,2.8-2.8,5.5-5.1,7.8l-1.1,1.1L30,95.6c-9,9-23.5,9-32.5,0l-41.3-41.3c-9-9-9-23.5,0-32.5
		l2.1-2.1c2.3-2.3,5-4,7.8-5.1c-3.3,8.3-1.6,18.1,5.1,24.8l41.3,41.3C19.2,87.3,29,89,37.3,85.7z"/>
	<path class="st7" d="M240.9,316.8c-2.8,0-5.5-1.6-6.8-4.3c-1.8-3.7-0.2-8.2,3.5-10c22.6-10.8,41.7-27.7,55.3-48.8
		c5.5-8.6,10.1-17.9,13.5-27.5c1.4-3.9,5.7-5.9,9.6-4.6c3.9,1.4,5.9,5.7,4.6,9.6c-3.8,10.7-8.9,21-15,30.6
		c-15.1,23.5-36.3,42.2-61.4,54.2C243.1,316.6,242,316.8,240.9,316.8z"/>
	<circle class="st7" cx="229.7" cy="345.7" r="7.5"/>
	<circle class="st7" cx="319.8" cy="204.1" r="7.5"/>
	<path class="st9" d="M344.7,173.6h-12c-2.9-20.5-17.3-37.3-36.4-43.7c-0.5-3.3-1.6-6.7-4-9.7c-5.1-6.4-13.4-7.7-20.7-8.9
		c-4.2-0.7-8.9-1.4-10.9-3c-1.9-1.5-3.7-6-5.3-9.9c-2.8-6.9-5.9-14.7-13.3-18.2c-7.3-3.5-15.2-1.1-22.3,1c-4.1,1.2-8.8,2.6-11.3,2
		c-2.3-0.5-5.8-3.7-8.9-6.5c-5.5-5-11.8-10.7-20.1-10.7c-8.3,0-14.6,5.7-20.1,10.7c-3.1,2.8-6.6,6-8.9,6.5c-2.5,0.6-7.2-0.8-11.3-2
		c-7.1-2.1-15.1-4.5-22.3-1c-7.4,3.6-10.5,11.4-13.3,18.3c-1.6,3.9-3.4,8.4-5.3,9.9c-2,1.6-6.7,2.3-10.9,3
		c-7.2,1.2-15.3,2.5-20.4,8.6L41.3,94.1c7.9-11.8,6.6-28-3.8-38.5L-3.8,14.4c-5.8-5.8-13.4-8.9-21.6-8.9S-41.2,8.6-47,14.4l-2.1,2.1
		c-5.8,5.8-8.9,13.4-8.9,21.6c0,8.1,3.2,15.8,8.9,21.6l41.3,41.3c5.9,5.9,13.8,8.9,21.6,8.9c5.9,0,11.8-1.7,16.9-5.1l27.1,27.1
		c-16.6,7.5-28.7,23.1-31.3,41.7h-12c-4.1,0-7.5,3.4-7.5,7.5c0,33.2,9.4,65.4,27.3,93.2c16.5,25.7,39.5,46.5,66.6,60.4v27.9
		c0,4.1,3.4,7.5,7.5,7.5h142.5c4.1,0,7.5-3.4,7.5-7.5v-27.9c27.1-13.9,50-34.7,66.6-60.4c17.9-27.8,27.3-60,27.3-93.2
		C352.2,176.9,348.8,173.6,344.7,173.6z M317.5,173.6H241c3.5-17.9,19.3-31.5,38.3-31.5S314,155.7,317.5,173.6z M133.4,173.6
		c-0.9-6.3-2.8-12.2-5.7-17.6l100,8.9c-0.9,2.8-1.5,5.7-1.9,8.7L133.4,173.6L133.4,173.6z M269.3,126.1c2,0.3,4.1,0.7,6.1,1.1
		c-16.8,1.2-31.5,10.1-40.5,23.2L130,141.1L254.4,122C259,124.5,264.4,125.3,269.3,126.1z M89.9,126.1c6-1,12.8-2.1,17.9-6.1
		c5-4,7.5-10.1,9.9-16c1.7-4.2,3.8-9.3,5.9-10.3c2-1,7.3,0.6,11.5,1.8c5.9,1.7,12.5,3.7,18.9,2.3c6.2-1.4,11-5.8,15.6-10
		c3.4-3,7.5-6.8,10-6.8c2.5,0,6.7,3.8,10,6.8c4.7,4.2,9.5,8.6,15.6,10c6.4,1.4,13-0.5,18.9-2.3c4.2-1.3,9.5-2.8,11.5-1.8
		c2.1,1,4.2,6.2,5.9,10.3c0.6,1.5,1.2,3,1.9,4.5L99.3,130.7c-4.8-1.9-10-3-15.4-3.4C85.8,126.8,87.9,126.4,89.9,126.1z M2.8,90.3
		L-38.5,49c-2.9-2.9-4.5-6.8-4.5-11c0-4.1,1.6-8,4.5-11l2.1-2.1c2.9-2.9,6.8-4.5,11-4.5s8,1.6,11,4.5l41.3,41.3c6,6,6,15.9,0,21.9
		l-2.1,2.1C18.7,96.3,8.9,96.3,2.8,90.3z M79.9,142.1c18.9,0,34.8,13.6,38.3,31.5H41.7C45.2,155.7,61,142.1,79.9,142.1z
		 M115.8,355.2v-17.6h127.5v17.6H115.8z M312.3,266.2c-15.6,24.2-37.4,43.7-63.2,56.4h-139c-25.8-12.7-47.6-32.1-63.2-56.4
		c-15-23.3-23.4-49.9-24.7-77.6H337C335.7,216.2,327.2,242.9,312.3,266.2z"/>
</g>
</svg>
